<svg xmlns="http://www.w3.org/2000/svg" version="1.1" xmlns:xlink="http://www.w3.org/1999/xlink" width="512" height="512" x="0" y="0" viewBox="0 0 24 24" style="enable-background:new 0 0 512 512" xml:space="preserve" class=""><g><path d="M20.48 4.816a.742.742 0 0 1-.505-.196C17.768 2.608 14.936 1.5 12 1.5S6.232 2.608 4.025 4.621a.752.752 0 0 1-1.011-1.109C5.499 1.247 8.69 0 12 0s6.501 1.247 8.986 3.512a.75.75 0 0 1-.506 1.304z" fill="#74b0ff" opacity="1" data-original="#000000" class=""></path><path d="M21.75 9.717a.747.747 0 0 1-.623-.332c-2.082-3.1-5.494-4.951-9.127-4.951S4.955 6.285 2.873 9.385a.75.75 0 1 1-1.246-.836C3.988 5.034 7.866 2.935 12 2.935s8.012 2.099 10.373 5.615a.75.75 0 0 1-.623 1.167z" fill="#74b0ff" opacity="1" data-original="#000000" class=""></path><path d="M9.631 24a.749.749 0 0 1-.533-.222c-.164-.165-4.007-4.088-4.007-7.865 0-3.92 3.099-7.109 6.909-7.109s6.909 3.189 6.909 7.109a.75.75 0 0 1-1.5 0c0-3.093-2.426-5.609-5.409-5.609s-5.409 2.516-5.409 5.609c0 3.167 3.537 6.773 3.573 6.809A.75.75 0 0 1 9.631 24z" fill="#74b0ff" opacity="1" data-original="#000000" class=""></path><path d="M14.369 24c-1.804 0-5.986-3.432-6.391-7.254-.143-1.351.287-2.733 1.149-3.697.75-.838 1.763-1.303 2.852-1.309H12c1.062 0 2.066.417 2.83 1.176a4.193 4.193 0 0 1 1.237 2.998v.489c0 1.205.938 2.185 2.092 2.185s2.093-.98 2.093-2.185v-.171c0-4.67-3.383-8.555-7.702-8.843-2.251-.153-4.412.625-6.079 2.183-1.73 1.618-2.722 3.93-2.722 6.342a8.74 8.74 0 0 0 1.892 5.443.75.75 0 0 1-1.172.936 10.252 10.252 0 0 1-2.22-6.38c0-2.826 1.166-5.537 3.197-7.437 1.973-1.846 4.532-2.765 7.203-2.585 5.104.341 9.103 4.883 9.103 10.34v.171c0 2.032-1.612 3.685-3.593 3.685s-3.592-1.653-3.592-3.685v-.489c0-.738-.282-1.424-.794-1.934a2.498 2.498 0 0 0-1.772-.74h-.014c-.845.004-1.414.443-1.742.81-.585.653-.875 1.603-.776 2.539.331 3.118 3.914 5.913 4.9 5.913a.75.75 0 0 1 0 1.499z" fill="#74b0ff" opacity="1" data-original="#000000" class=""></path><path d="M17.152 22.533c-2.684 0-5.961-3.28-5.961-7.109a.75.75 0 0 1 1.5 0c0 2.968 2.495 5.609 4.461 5.609a.75.75 0 0 1 0 1.5z" fill="#74b0ff" opacity="1" data-original="#000000" class=""></path></g></svg>