<svg xmlns="http://www.w3.org/2000/svg" version="1.1" xmlns:xlink="http://www.w3.org/1999/xlink" width="512" height="512" x="0" y="0" viewBox="0 0 512 512" style="enable-background:new 0 0 512 512" xml:space="preserve"><g><path d="M486.5 456h-5V229.5a7.5 7.5 0 0 0-15 0V456h-75V173.5a2.5 2.5 0 0 1 2.5-2.5h70a2.5 2.5 0 0 1 2.5 2.5v26a7.5 7.5 0 0 0 15 0v-26A17.52 17.52 0 0 0 464 156h-70a17.52 17.52 0 0 0-17.5 17.5V456h-10.333V263.5a17.52 17.52 0 0 0-17.5-17.5h-70a17.519 17.519 0 0 0-17.5 17.5V456h-10.334V213.5a17.519 17.519 0 0 0-17.5-17.5h-70a17.52 17.52 0 0 0-17.5 17.5V456H135.5V343.5A17.521 17.521 0 0 0 118 326H48a17.521 17.521 0 0 0-17.5 17.5v97a7.5 7.5 0 0 0 15 0v-97A2.5 2.5 0 0 1 48 341h70a2.5 2.5 0 0 1 2.5 2.5V456h-95a7.5 7.5 0 0 0 0 15h461a7.5 7.5 0 0 0 0-15Zm-325.667 0V213.5a2.5 2.5 0 0 1 2.5-2.5h70a2.5 2.5 0 0 1 2.5 2.5V456Zm115.334 0V263.5a2.5 2.5 0 0 1 2.5-2.5h70a2.5 2.5 0 0 1 2.5 2.5V456Z" fill="#74b0ff" opacity="1" data-original="#000000"></path><path d="M429 41a27.493 27.493 0 0 0-24.173 40.6l-71.245 57.963a27.446 27.446 0 0 0-41.008 1.313l-66.75-32.022c0-.119.009-.237.009-.357a27.5 27.5 0 1 0-51.375 13.62l-81.251 90.855a27.542 27.542 0 1 0 11.9 9.195l80.066-89.527a27.461 27.461 0 0 0 36.262-9.251l65.015 31.189a27.5 27.5 0 1 0 54.191-1.417l74.724-60.794A27.494 27.494 0 1 0 429 41ZM83 251a12.5 12.5 0 1 1 12.5-12.5A12.514 12.514 0 0 1 83 251Zm115.333-130a12.5 12.5 0 1 1 12.5-12.5 12.514 12.514 0 0 1-12.5 12.5Zm115.334 50a12.5 12.5 0 1 1 12.5-12.5 12.514 12.514 0 0 1-12.5 12.5ZM429 81a12.5 12.5 0 1 1 12.5-12.5A12.514 12.514 0 0 1 429 81Z" fill="#74b0ff" opacity="1" data-original="#000000"></path></g></svg>