<svg xmlns="http://www.w3.org/2000/svg" version="1.1" xmlns:xlink="http://www.w3.org/1999/xlink" width="512" height="512" x="0" y="0" viewBox="0 0 64 64" style="enable-background:new 0 0 512 512" xml:space="preserve" class=""><g><path d="M53.481 25H63a1 1 0 0 0 1-1V12a1 1 0 0 0-1-1H51a1 1 0 0 0-1 1v1.233L36.777 6.356l3.066-4.819A1 1 0 0 0 39 0H25a1.001 1.001 0 0 0-.844 1.538l3.11 4.887-12.774 6.919C13.038 11.323 10.673 10 8 10c-4.411 0-8 3.589-8 8s3.589 8 8 8a7.936 7.936 0 0 0 3.476-.806l3.966 6.117-4.583 7.827-2.466-1.057a.996.996 0 0 0-.787 0l-7 3A.999.999 0 0 0 0 42v8c0 .4.238.762.606.919l7 3a.996.996 0 0 0 .788 0l7-3a.994.994 0 0 0 .596-.851l7.504 2.809A4.946 4.946 0 0 0 23 55a5.01 5.01 0 0 0 4.084 4.916C27.516 62.237 29.556 64 32 64s4.484-1.763 4.916-4.084A5.01 5.01 0 0 0 41 55c0-.687-.151-1.335-.403-1.932l9.115-3.172-.643 3.942a1.003 1.003 0 0 0 1.471 1.037L55 52.41l4.461 2.465a1 1 0 0 0 1.47-1.037l-.863-5.291 3.647-3.738a1 1 0 0 0-.565-1.687l-5.001-.764-2.245-4.784a.998.998 0 0 0-1.809.001l-1.437 3.061-4.361-7.962zm-6.264 5.701-2.485-4.537L50 23.154V24a1 1 0 0 0 1 1h.068zm-11.48 16.993A4.992 4.992 0 0 0 33 46.109V34.603l8.171 5.046zm-7.362-.112-5.712-8.809L31 34.01v12.099a4.985 4.985 0 0 0-2.625 1.473zM31 12.292v18.726l-9.597-5.927 8.502-14.52zm2.996-1.566 8.037 14.675L33 30.563V12.292zm-4.394 21.779-8.028 4.587-3.782-5.833 2.6-4.441zm3.915.067 9.478-5.415 2.962 5.409-3.665 5.426zM52 13h10v10H52zm-2 2.487v5.363l-6.229 3.559L35.222 8.8l.478-.751zM37.179 2 32 10.137 26.821 2zm-8.836 6.116.355.557L19.7 24.039l-4.425-2.732A7.924 7.924 0 0 0 16 18c0-1.023-.2-1.999-.552-2.9zM2 18c0-3.309 2.691-6 6-6s6 2.691 6 6-2.691 6-6 6-6-2.691-6-6zm11.155 6.108c.391-.331.75-.698 1.072-1.097l4.462 2.755-2.116 3.614zm3.506 9.082 3.174 4.896-4.899 2.799-2.223-.953zM14 49.341l-6 2.571-6-2.571v-6.682l6-2.571 6 2.571zm2-1.405V42.58l4.925-2.814 6.319 9.745c-.059.188-.123.375-.16.572a4.974 4.974 0 0 0-2.338 1.127zM36 58a1 1 0 0 0-1 1c0 1.654-1.346 3-3 3s-3-1.346-3-3a1 1 0 0 0-1-1c-1.654 0-3-1.346-3-3s1.346-3 3-3a1 1 0 0 0 1-1c0-1.654 1.346-3 3-3s3 1.346 3 3a1 1 0 0 0 1 1c1.654 0 3 1.346 3 3s-1.346 3-3 3zm.916-7.916c-.026-.137-.075-.265-.111-.398l6.07-8.985 3.939 2.432a.999.999 0 0 0-.762.661c-.119.355-.029.748.232 1.016l3.032 3.107-9.908 3.448a4.973 4.973 0 0 0-2.492-1.281zM55 40.354l1.566 3.338c.142.302.425.513.754.564l3.604.55-2.641 2.707a.999.999 0 0 0-.271.859l.613 3.756-3.143-1.736a.996.996 0 0 0-.966 0l-3.143 1.736.613-3.756a1.001 1.001 0 0 0-.271-.859l-2.641-2.707 3.604-.55c.329-.051.612-.262.754-.564zm-3.638 2.079-1.504.23-5.863-3.621 3.043-4.504z" fill="#74b0ff" opacity="1" data-original="#000000"></path></g></svg>