<svg xmlns="http://www.w3.org/2000/svg" version="1.1" xmlns:xlink="http://www.w3.org/1999/xlink" width="512" height="512" x="0" y="0" viewBox="0 0 469.333 469.333" style="enable-background:new 0 0 512 512" xml:space="preserve" class=""><g><path d="M469.333 234.654c0-11.157-5.917-21.324-15.854-27.22l-26.134-15.375a34323.54 34323.54 0 0 0 26.155-15.544c9.917-5.917 15.833-16.084 15.833-27.199 0-11.115-5.917-21.282-15.833-27.21-32.667-19.428-143.438-85.255-198.042-116.558-12.646-7.261-28.021-7.552-41.688.063 0 0-148.5 87.224-197.917 116.486C5.917 127.992 0 138.159 0 149.316c0 11.115 5.917 21.282 15.833 27.21a40752.45 40752.45 0 0 0 26.15 15.537l-26.129 15.371C5.917 213.33 0 223.497 0 234.654c0 11.115 5.917 21.282 15.833 27.21a40752.45 40752.45 0 0 0 26.15 15.537l-26.129 15.371C5.917 298.668 0 308.835 0 319.992c0 11.115 5.917 21.282 15.833 27.21C58.104 372.338 162 434.019 213.875 463.76c6.354 3.646 13.563 5.573 20.792 5.573s14.438-1.927 20.813-5.584c51.854-29.731 155.75-91.411 198.021-116.558 9.917-5.917 15.833-16.084 15.833-27.199 0-11.157-5.917-21.324-15.854-27.22l-26.134-15.375a34323.54 34323.54 0 0 0 26.155-15.544c9.916-5.917 15.832-16.084 15.832-27.199zM26.75 158.219c-1.625-.979-5.417-3.792-5.417-8.885 0-5.115 3.771-7.906 5.396-8.865C76.083 111.24 224.375 24.146 224.354 24.156c6.792-3.823 14.208-3.677 20.5-.073 54.458 31.219 165.125 96.969 197.729 116.365 1.625.979 5.417 3.792 5.417 8.885s-3.792 7.906-5.417 8.875c-42.208 25.104-145.979 86.719-197.708 116.365-6.417 3.667-14.021 3.656-20.396.01-51.75-29.656-155.521-91.27-197.729-116.364zm415.854 152.916c1.625.958 5.396 3.75 5.396 8.865 0 5.094-3.792 7.906-5.417 8.875-42.208 25.104-145.979 86.719-197.708 116.365-6.417 3.667-14.021 3.656-20.396.01-51.75-29.656-155.521-91.271-197.729-116.365-1.625-.979-5.417-3.792-5.417-8.885 0-5.115 3.771-7.906 5.396-8.865l36.199-21.301c48.928 29.001 113.47 67.107 150.947 88.592 6.354 3.646 13.563 5.573 20.792 5.573s14.438-1.927 20.813-5.583c37.461-21.478 101.997-59.578 150.923-88.583l36.201 21.302zm-.021-67.593c-42.208 25.104-145.979 86.719-197.708 116.365-6.417 3.667-14.021 3.656-20.396.01-51.75-29.657-155.521-91.271-197.729-116.365-1.625-.979-5.417-3.792-5.417-8.885 0-5.115 3.771-7.906 5.396-8.865l36.199-21.301c48.928 29.001 113.47 67.107 150.947 88.592 6.354 3.646 13.563 5.573 20.792 5.573s14.438-1.927 20.813-5.583c37.461-21.478 101.997-59.578 150.923-88.583l36.202 21.302c1.625.958 5.396 3.75 5.396 8.865-.001 5.093-3.793 7.906-5.418 8.875z" fill="#74b0ff" opacity="1" data-original="#000000" class=""></path></g></svg>